<svg xmlns="http://www.w3.org/2000/svg" viewBox="0 0 15.96 15.96"><defs><style>.cls-1{fill:#231f20;}</style></defs><title>collapse-border</title><g id="Layer_2" data-name="Layer 2"><g id="collapse-border"><path class="cls-1" d="M8,1.25A6.73,6.73,0,1,1,1.25,8,6.74,6.74,0,0,1,8,1.25M8,0a8,8,0,1,0,8,8A8,8,0,0,0,8,0Z"/><polygon class="cls-1" points="11.09 4.39 9.95 3.25 7.98 5.22 6.01 3.25 4.87 4.39 7.98 7.51 11.09 4.39"/><polygon class="cls-1" points="4.87 11.56 6.01 12.71 7.98 10.74 9.95 12.71 11.09 11.56 7.98 8.45 4.87 11.56"/></g></g></svg>