<svg xmlns="http://www.w3.org/2000/svg" viewBox="0 0 15.96 15.96"><defs><style>.cls-1{fill:#231f20;}</style></defs><title>download-border</title><g id="Layer_2" data-name="Layer 2"><g id="download-border"><path class="cls-1" d="M8,1.25A6.73,6.73,0,1,1,1.25,8,6.74,6.74,0,0,1,8,1.25M8,0a8,8,0,1,0,8,8A8,8,0,0,0,8,0Z"/><polygon class="cls-1" points="3.87 6.28 7.98 10.39 7.98 10.39 7.98 10.39 12.09 6.28 10.95 5.14 8.79 7.3 8.79 2.88 7.17 2.88 7.17 7.3 5.01 5.14 3.87 6.28"/><rect class="cls-1" x="7.19" y="9.36" width="1.62" height="5.82" transform="translate(20.26 4.27) rotate(90)"/></g></g></svg>