<svg xmlns="http://www.w3.org/2000/svg" viewBox="0 0 15.96 15.96"><defs><style>.cls-1{fill:#231f20;}</style></defs><title>expand-border</title><g id="Layer_2" data-name="Layer 2"><g id="expand-border"><path class="cls-1" d="M8,1.25A6.73,6.73,0,1,1,1.25,8,6.74,6.74,0,0,1,8,1.25M8,0a8,8,0,1,0,8,8A8,8,0,0,0,8,0Z"/><polygon class="cls-1" points="4.87 5.86 6.01 7.01 7.98 5.04 9.95 7 11.09 5.86 7.98 2.75 4.87 5.86"/><polygon class="cls-1" points="11.09 10.09 9.95 8.95 7.98 10.92 6.01 8.95 4.87 10.09 7.98 13.21 11.09 10.09"/></g></g></svg>