<svg xmlns="http://www.w3.org/2000/svg" viewBox="0 0 16.08 16.08"><defs><style>.cls-1{fill:#231f20;}</style></defs><title>settings</title><g id="Layer_2" data-name="Layer 2"><g id="settings"><path class="cls-1" d="M16.08,9.72V6.36H14.15a6.16,6.16,0,0,0-.6-1.45l1.37-1.36L12.54,1.17,11.17,2.53a6.61,6.61,0,0,0-1.45-.6V0H6.36V1.93a6.61,6.61,0,0,0-1.45.6L3.55,1.17,1.17,3.55,2.53,4.91a6.61,6.61,0,0,0-.6,1.45H0V9.72H1.93a6.61,6.61,0,0,0,.6,1.45L1.17,12.54l2.38,2.38,1.36-1.37a6.16,6.16,0,0,0,1.45.6v1.93H9.72V14.15a6.16,6.16,0,0,0,1.45-.6l1.37,1.37,2.38-2.38-1.37-1.37a6.16,6.16,0,0,0,.6-1.45ZM8,11.17A3.13,3.13,0,1,1,11.17,8,3.13,3.13,0,0,1,8,11.17Z"/></g></g></svg>